<svg width="57" height="57" xmlns="http://www.w3.org/2000/svg" style="fill: #fff;">

 <g>
  <title>background</title>
  <rect fill="none" id="canvas_background" height="402" width="582" y="-1" x="-1"/>
 </g>
 <g>
  <title>Layer 1</title>
  <path transform="rotate(-180, 28.5, 28.5001)" id="svg_1" d="m56.575001,27.683001l-27,-19.000001c-0.306002,-0.216 -0.703001,-0.242 -1.036001,-0.07c-0.330999,0.171 -0.539,0.514 -0.539,0.887l0,17.777l-26.425,-18.583c-0.305,-0.213 -0.703,-0.241 -1.036,-0.069c-0.331,0.172 -0.539,0.515 -0.539,0.888l0,37.974999c0,0.373001 0.208,0.716 0.539,0.888c0.146,0.074001 0.304,0.111 0.461,0.111c0.202,0 0.403,-0.062 0.575,-0.181999l26.425,-18.582001l0,17.777c0,0.373001 0.208,0.716 0.539,0.888c0.146,0.075001 0.304001,0.112 0.461,0.112c0.202,0 0.403999,-0.062 0.575001,-0.182999l27,-19.000002c0.266998,-0.185999 0.424999,-0.491999 0.424999,-0.816999s-0.158001,-0.631001 -0.424999,-0.816999z"/>
  <g id="svg_2"/>
  <g id="svg_3"/>
  <g id="svg_4"/>
  <g id="svg_5"/>
  <g id="svg_6"/>
  <g id="svg_7"/>
  <g id="svg_8"/>
  <g id="svg_9"/>
  <g id="svg_10"/>
  <g id="svg_11"/>
  <g id="svg_12"/>
  <g id="svg_13"/>
  <g id="svg_14"/>
  <g id="svg_15"/>
  <g id="svg_16"/>
 </g>
</svg>
